<svg xmlns="http://www.w3.org/2000/svg" width="261" height="27" fill="none" viewBox="0 0 261 27">
  <path fill="#000" d="M27.145 1.94v.677c-.768.022-1.35.108-1.748.257a1.258 1.258 0 0 0-.793.805c-.136.397-.204 1.013-.204 1.847v16.782c0 .812.068 1.421.204 1.827.135.406.4.677.793.812.397.136.98.226 1.748.271v.677a26.8 26.8 0 0 0-1.945-.081 136.608 136.608 0 0 0-4.833 0c-.768.009-1.39.036-1.864.08v-.676c.768-.045 1.351-.135 1.749-.27a1.22 1.22 0 0 0 .793-.813c.135-.406.203-1.015.203-1.827V3.7l.136.102-8.304 22.263h-.542l-8.54-21.96V21.97c0 .812.074 1.45.223 1.915.145.46.438.787.881.981.439.19 1.098.307 1.98.352v.677a17.222 17.222 0 0 0-1.593-.081 90.71 90.71 0 0 0-1.864-.02c-.565 0-1.135.006-1.709.02-.578.009-1.06.036-1.443.08v-.676c.768-.045 1.348-.162 1.742-.352.397-.194.664-.52.8-.981.135-.465.203-1.103.203-1.915V5.526c0-.834-.068-1.45-.204-1.847a1.258 1.258 0 0 0-.8-.805c-.393-.15-.973-.235-1.741-.257V1.94c.384.022.865.045 1.443.068.574.022 1.144.033 1.709.033.497 0 1.012-.01 1.545-.033a69.81 69.81 0 0 0 1.335-.068L14.2 22.173l-.576.27 7.625-20.402h1.593c.791 0 1.577-.01 2.36-.033.776-.023 1.425-.046 1.944-.068Zm7.694 6.113c1.446 0 2.745.315 3.898.947 1.152.632 2.074 1.624 2.765 2.977.687 1.354 1.03 3.113 1.03 5.279 0 2.165-.343 3.918-1.03 5.258-.691 1.344-1.613 2.332-2.766 2.963-1.152.632-2.451.948-3.897.948-1.423 0-2.716-.316-3.877-.948-1.166-.631-2.093-1.62-2.78-2.963-.69-1.34-1.036-3.093-1.036-5.258 0-2.166.345-3.925 1.037-5.279.686-1.353 1.613-2.345 2.779-2.977 1.161-.632 2.454-.947 3.877-.947Zm0 .676c-1.288 0-2.343.666-3.165 1.997-.828 1.33-1.24 3.507-1.24 6.53 0 3.022.412 5.194 1.24 6.516.822 1.318 1.877 1.976 3.165 1.976s2.345-.659 3.172-1.976c.823-1.322 1.234-3.494 1.234-6.516 0-3.023-.411-5.2-1.234-6.53-.827-1.331-1.884-1.997-3.172-1.997Zm19.488-.676c.858 0 1.577.112 2.155.338a3.916 3.916 0 0 1 1.437.947c.43.451.735 1.015.916 1.692.18.677.27 1.59.27 2.74v9.035c0 .947.2 1.59.597 1.928.393.338 1.053.508 1.98.508v.71c-.385-.022-.972-.05-1.763-.081a50.564 50.564 0 0 0-2.305-.054c-.745 0-1.473.018-2.182.054-.714.031-1.252.059-1.614.081v-.71c.814 0 1.39-.17 1.729-.508.339-.338.508-.981.508-1.928v-9.779c0-.699-.056-1.342-.17-1.928-.112-.587-.365-1.06-.758-1.421-.398-.361-1.004-.542-1.817-.542-.949 0-1.778.271-2.488.812-.714.542-1.267 1.282-1.66 2.22-.398.934-.597 1.976-.597 3.126v7.512c0 .947.17 1.59.509 1.928.339.338.915.508 1.728.508v.71c-.361-.022-.897-.05-1.606-.081a43.366 43.366 0 0 0-2.19-.054c-.745 0-1.514.018-2.304.054-.791.031-1.379.059-1.763.081v-.71c.926 0 1.589-.17 1.986-.508.393-.338.59-.981.59-1.928v-10.59c0-1.016-.18-1.765-.542-2.247-.362-.488-1.04-.731-2.034-.731v-.71c.723.067 1.424.1 2.101.1.656 0 1.284-.04 1.885-.121a9.366 9.366 0 0 0 1.64-.352v3.993c.588-1.534 1.408-2.599 2.46-3.194 1.05-.6 2.15-.9 3.302-.9ZM67.037.068c.587 0 1.095.214 1.524.643.43.428.644.936.644 1.522 0 .587-.214 1.094-.644 1.523a2.086 2.086 0 0 1-1.525.642 2.086 2.086 0 0 1-1.525-.642c-.43-.429-.644-.936-.644-1.523 0-.586.215-1.094.644-1.522.43-.43.938-.643 1.525-.643Zm1.762 8.086v14.65c0 .948.198 1.59.596 1.93.393.337 1.053.507 1.98.507v.71c-.385-.022-.965-.05-1.743-.081a51.134 51.134 0 0 0-4.697 0c-.79.031-1.378.059-1.762.081v-.71c.926 0 1.588-.17 1.986-.508.393-.338.59-.981.59-1.928v-10.59c0-1.016-.181-1.765-.543-2.247-.361-.488-1.04-.731-2.033-.731v-.71c.723.067 1.423.1 2.101.1.655 0 1.283-.04 1.884-.121a9.366 9.366 0 0 0 1.64-.352Zm9.625-8.73v23.38c0 .948.17 1.59.508 1.93.34.337.915.507 1.729.507v.71c-.362-.022-.897-.05-1.607-.081a42.681 42.681 0 0 0-2.155-.054c-.768 0-1.548.018-2.339.054-.79.031-1.378.059-1.762.081v-.71c.926 0 1.588-.17 1.986-.508.393-.338.59-.981.59-1.928V3.485c0-1.015-.181-1.764-.542-2.247-.362-.487-1.04-.73-2.034-.73v-.711c.723.068 1.423.101 2.101.101.656 0 1.284-.04 1.885-.121a9.366 9.366 0 0 0 1.64-.352Zm10.778 9.102v.677a4.152 4.152 0 0 0-1.593.453c-.497.262-.983.641-1.458 1.137l-4.778 5.008.474-.948 6.304 8.628c.384.519.752.925 1.105 1.218.348.293.77.474 1.267.542v.71c-.248-.022-.637-.05-1.165-.081a23.376 23.376 0 0 0-1.58-.054c-.7 0-1.412.018-2.135.054a96.26 96.26 0 0 0-1.627.081v-.71c.452 0 .768-.113.95-.339.18-.225.146-.496-.102-.812l-3.898-5.684c-.43-.609-.818-1.004-1.166-1.184-.352-.18-.856-.282-1.512-.305v-.676c.724-.09 1.31-.242 1.763-.454.452-.216.881-.539 1.288-.968l2.508-2.605c.723-.744 1.084-1.335 1.084-1.773 0-.442-.23-.76-.691-.954-.466-.19-1.071-.284-1.817-.284v-.677c.588.023 1.25.052 1.986.088.732.032 1.347.048 1.844.048.384 0 .757-.007 1.118-.02.362-.01.7-.025 1.017-.048.317-.023.588-.045.814-.068Zm6.492 17.143c-.926 0-1.728-.174-2.406-.52a3.618 3.618 0 0 1-1.539-1.476c-.352-.632-.528-1.365-.528-2.2 0-.992.232-1.804.698-2.435a5.148 5.148 0 0 1 1.776-1.523 13.944 13.944 0 0 1 2.29-.96c.8-.262 1.562-.51 2.285-.745.723-.24 1.317-.517 1.783-.833.461-.315.691-.733.691-1.252v-2.097c0-.948-.14-1.67-.42-2.166-.285-.496-.664-.83-1.139-1.001a4.777 4.777 0 0 0-1.593-.25c-.564 0-1.168.078-1.81.236-.646.158-1.16.485-1.545.982.43.09.802.315 1.118.676.317.361.475.824.475 1.387 0 .564-.18 1.011-.542 1.34-.362.325-.825.487-1.39.487-.655 0-1.134-.207-1.437-.622a2.325 2.325 0 0 1-.46-1.407c0-.587.146-1.06.44-1.422.293-.36.666-.699 1.118-1.015.52-.36 1.193-.67 2.02-.927.823-.261 1.754-.392 2.793-.392.926 0 1.717.108 2.372.325.656.212 1.198.52 1.627.927.588.541.972 1.2 1.152 1.976.181.78.272 1.712.272 2.794v9.406c0 .564.085.97.257 1.218.167.249.432.373.793.373.249 0 .486-.057.712-.17.226-.112.497-.293.813-.54l.373.574c-.474.361-.926.661-1.356.9-.429.235-1.005.352-1.728.352-.655 0-1.198-.113-1.627-.338a2.16 2.16 0 0 1-.962-.995c-.217-.442-.326-1.001-.326-1.678-.61 1.015-1.337 1.77-2.182 2.267-.85.496-1.806.744-2.868.744Zm1.22-1.353c.746 0 1.442-.214 2.088-.643.642-.429 1.223-1.071 1.742-1.929v-6.631c-.271.383-.666.704-1.186.96-.52.262-1.085.522-1.695.779-.61.261-1.19.566-1.742.913a4.44 4.44 0 0 0-1.376 1.374c-.361.564-.542 1.297-.542 2.2 0 .902.244 1.623.732 2.165.484.541 1.144.812 1.98.812ZM126.041 1.5c1.13 0 1.989.13 2.576.392a9.036 9.036 0 0 1 1.559.86c.271.158.493.275.665.352.167.081.329.122.488.122.226 0 .39-.124.494-.373.1-.248.183-.62.251-1.116h.78l-.082 1.367a38.587 38.587 0 0 0-.067 2.104c-.014.866-.021 2.01-.021 3.431h-.779a9.76 9.76 0 0 0-.712-3.113c-.407-.992-.999-1.804-1.776-2.436-.782-.631-1.805-.947-3.071-.947-1.197 0-2.185.36-2.962 1.083-.782.721-1.173 1.669-1.173 2.842 0 1.015.26 1.867.78 2.558.52.685 1.216 1.306 2.088 1.86.867.55 1.81 1.142 2.827 1.773a34.951 34.951 0 0 1 3.138 2.152c.913.709 1.636 1.491 2.169 2.348.529.857.793 1.895.793 3.113 0 1.444-.328 2.64-.983 3.587a6.047 6.047 0 0 1-2.609 2.131c-1.085.474-2.282.71-3.593.71-1.197 0-2.147-.135-2.847-.405a12.203 12.203 0 0 1-1.796-.846c-.498-.316-.882-.474-1.153-.474-.226 0-.388.124-.488.372-.104.248-.19.62-.257 1.117h-.78c.045-.474.075-1.03.088-1.672l.034-2.524a464.4 464.4 0 0 0 .014-3.924h.779a13.97 13.97 0 0 0 .766 3.79c.416 1.172 1.06 2.115 1.932 2.828.868.708 2.025 1.062 3.471 1.062a5.09 5.09 0 0 0 2.121-.453c.665-.307 1.211-.792 1.641-1.455.429-.668.644-1.532.644-2.592 0-.925-.219-1.73-.658-2.416-.443-.69-1.059-1.333-1.85-1.928a29.963 29.963 0 0 0-2.78-1.848 45.451 45.451 0 0 1-2.982-1.996c-.927-.677-1.665-1.462-2.217-2.355-.556-.889-.833-1.964-.833-3.228 0-1.33.3-2.431.901-3.302a5.358 5.358 0 0 1 2.352-1.922 7.782 7.782 0 0 1 3.118-.629Zm14.643-2.075v23.38c0 .947.169 1.59.508 1.928.339.338.915.508 1.729.508v.71c-.362-.022-.897-.05-1.607-.081a42.661 42.661 0 0 0-2.155-.054c-.769 0-1.548.018-2.339.054-.791.031-1.378.059-1.762.081v-.71c.926 0 1.588-.17 1.986-.508.393-.338.589-.981.589-1.928V3.485c0-1.015-.18-1.764-.542-2.247-.361-.487-1.039-.73-2.033-.73v-.711a22.55 22.55 0 0 0 2.101.101c.655 0 1.283-.04 1.884-.121a9.362 9.362 0 0 0 1.641-.352Zm10.777 9.101v.677a4.15 4.15 0 0 0-1.593.453c-.497.262-.982.641-1.457 1.137l-4.779 5.008.475-.948 6.304 8.628c.384.519.752.925 1.105 1.218.347.293.77.474 1.267.542v.71a42.19 42.19 0 0 0-1.166-.081 23.356 23.356 0 0 0-1.579-.054c-.701 0-1.412.018-2.135.054a95.44 95.44 0 0 0-1.627.081v-.71c.452 0 .768-.113.949-.339.181-.225.147-.496-.102-.812l-3.897-5.684c-.43-.609-.818-1.004-1.166-1.184-.353-.18-.857-.282-1.512-.305v-.676c.723-.09 1.311-.242 1.762-.454a4.402 4.402 0 0 0 1.288-.968l2.508-2.605c.723-.744 1.085-1.335 1.085-1.773 0-.442-.231-.76-.691-.954-.466-.19-1.071-.284-1.817-.284v-.677c.587.023 1.249.052 1.986.088.732.032 1.347.048 1.844.048.384 0 .757-.007 1.118-.02.362-.01.701-.025 1.017-.048.316-.023.587-.045.813-.068Zm6.406-8.458c.587 0 1.096.214 1.525.643.429.428.644.936.644 1.522 0 .587-.215 1.094-.644 1.523a2.086 2.086 0 0 1-1.525.642 2.085 2.085 0 0 1-1.525-.642 2.077 2.077 0 0 1-.644-1.523c0-.586.214-1.094.644-1.522a2.085 2.085 0 0 1 1.525-.643Zm1.762 8.086v14.65c0 .948.199 1.59.597 1.93.393.337 1.053.507 1.979.507v.71c-.384-.022-.965-.05-1.742-.081a51.139 51.139 0 0 0-4.697 0c-.791.031-1.379.059-1.763.081v-.71c.927 0 1.589-.17 1.986-.508.393-.338.59-.981.59-1.928v-10.59c0-1.016-.181-1.765-.542-2.247-.362-.488-1.04-.731-2.034-.731v-.71c.723.067 1.424.1 2.101.1.656 0 1.284-.04 1.885-.121a9.369 9.369 0 0 0 1.64-.352Zm11.029-.553c1.988 0 3.543.603 4.663 1.807 1.117 1.21 1.675 3.088 1.675 5.637h-11.964l-.034-.643h8.744c.045-1.105-.045-2.127-.271-3.065-.226-.934-.581-1.683-1.064-2.247-.488-.564-1.116-.846-1.885-.846-1.039 0-1.959.52-2.758 1.557-.805 1.037-1.286 2.684-1.444 4.94l.101.135c-.045.338-.079.71-.101 1.117a21.53 21.53 0 0 0-.034 1.217c0 1.534.248 2.854.746 3.96.497 1.104 1.147 1.946 1.952 2.523.8.573 1.629.86 2.487.86.678 0 1.322-.106 1.932-.318a4.756 4.756 0 0 0 1.695-1.07c.519-.496.971-1.161 1.355-1.996l.678.27c-.248.745-.655 1.467-1.22 2.166a6.561 6.561 0 0 1-2.135 1.712c-.859.438-1.853.657-2.982.657-1.627 0-3.021-.372-4.183-1.117-1.166-.744-2.058-1.775-2.677-3.092-.624-1.322-.936-2.84-.936-4.555 0-1.984.317-3.694.949-5.129.633-1.43 1.525-2.533 2.678-3.309 1.152-.78 2.497-1.17 4.033-1.17Zm19.454.452c.61 0 1.148.124 1.613.372.461.248.823.57 1.085.967.257.393.386.837.386 1.334 0 .563-.174 1.06-.522 1.488-.352.429-.822.643-1.41.643a1.9 1.9 0 0 1-1.254-.453c-.361-.307-.542-.742-.542-1.306 0-.429.12-.796.359-1.103a3 3 0 0 1 .793-.724c-.158-.226-.395-.339-.711-.339a3.25 3.25 0 0 0-1.932.63 5.469 5.469 0 0 0-1.492 1.603 8.89 8.89 0 0 0-.949 2.085c-.225.73-.338 1.412-.338 2.043v7.173c0 1.105.323 1.845.969 2.22.642.37 1.516.555 2.623.555v.71c-.52-.022-1.254-.05-2.203-.081a79.51 79.51 0 0 0-3.016-.054c-.768 0-1.53.018-2.285.054-.759.031-1.33.059-1.714.081v-.71c.926 0 1.588-.17 1.986-.508.393-.338.589-.981.589-1.928v-10.59c0-1.016-.18-1.765-.542-2.247-.361-.488-1.039-.731-2.033-.731v-.71a22.55 22.55 0 0 0 2.101.1c.655 0 1.283-.04 1.884-.121a9.382 9.382 0 0 0 1.641-.352v4.23a9.01 9.01 0 0 1 1.071-1.976 6.49 6.49 0 0 1 1.674-1.679 3.74 3.74 0 0 1 2.169-.676Zm12.672.075c1.988 0 3.543.602 4.664 1.807 1.116 1.209 1.674 3.088 1.674 5.636h-11.964l-.034-.642h8.744c.045-1.106-.045-2.127-.271-3.066-.226-.934-.581-1.682-1.064-2.246-.488-.564-1.116-.846-1.884-.846-1.04 0-1.959.518-2.759 1.556-.805 1.038-1.286 2.684-1.444 4.94l.102.135c-.046.339-.079.71-.102 1.117a21.53 21.53 0 0 0-.034 1.218c0 1.534.249 2.853.746 3.959.497 1.105 1.147 1.946 1.952 2.523.8.573 1.629.86 2.488.86.677 0 1.321-.106 1.931-.318a4.753 4.753 0 0 0 1.695-1.07c.52-.495.972-1.16 1.356-1.995l.677.27c-.248.744-.655 1.466-1.22 2.166a6.562 6.562 0 0 1-2.135 1.712c-.858.437-1.853.656-2.982.656-1.627 0-3.021-.372-4.183-1.116-1.165-.745-2.058-1.776-2.677-3.093-.624-1.322-.935-2.84-.935-4.554 0-1.985.316-3.695.949-5.13.632-1.43 1.525-2.533 2.677-3.309 1.152-.78 2.497-1.17 4.033-1.17Zm17.387 0c.723 0 1.423.09 2.101.27a6.11 6.11 0 0 1 1.83.813c.52.338.915.728 1.186 1.17.271.438.407.916.407 1.435 0 .609-.169 1.076-.508 1.4-.339.33-.769.495-1.288.495a2.04 2.04 0 0 1-1.302-.44c-.375-.294-.562-.71-.562-1.252 0-.519.142-.936.427-1.252.28-.316.612-.519.996-.61-.226-.405-.626-.743-1.2-1.014a4.31 4.31 0 0 0-1.85-.406c-.565 0-1.13.135-1.695.406-.565.27-1.084.717-1.559 1.34-.474.618-.858 1.464-1.152 2.537-.294 1.07-.441 2.405-.441 4.006 0 1.985.226 3.564.678 4.737.452 1.173 1.046 2.012 1.783 2.517.732.51 1.539.765 2.42.765a5.16 5.16 0 0 0 1.796-.338c.61-.226 1.186-.594 1.729-1.103.542-.505 1.005-1.187 1.389-2.044l.644.237c-.226.722-.599 1.45-1.118 2.186a6.21 6.21 0 0 1-2.034 1.806c-.836.474-1.864.711-3.084.711-1.401 0-2.666-.36-3.796-1.083-1.13-.722-2.027-1.752-2.691-3.092-.669-1.345-1.003-2.941-1.003-4.791 0-1.85.334-3.478 1.003-4.886.664-1.412 1.595-2.517 2.793-3.316 1.197-.803 2.564-1.204 4.101-1.204ZM232.55 0v22.805c0 .947.17 1.59.509 1.928.339.338.915.508 1.728.508v.71a98.92 98.92 0 0 0-1.606-.081 42.7 42.7 0 0 0-2.156-.054c-.768 0-1.548.018-2.338.054-.791.031-1.379.059-1.763.081v-.71c.927 0 1.589-.17 1.986-.508.393-.338.59-.981.59-1.928V3.485c0-1.015-.119-1.264-.481-1.747-.361-.487-1.039-.73-2.033-.73V.297a22.55 22.55 0 0 0 2.101.101c.655 0 1.284-.04 1.885-.121.596-.077 1.081-.12 1.578-.277Zm10.778 8.526v.677a4.15 4.15 0 0 0-1.593.453c-.497.262-.983.641-1.457 1.137l-4.779 5.008.474-.948 6.304 8.628c.384.519.753.925 1.105 1.218a2.43 2.43 0 0 0 1.268.542v.71a42.27 42.27 0 0 0-1.166-.081 23.378 23.378 0 0 0-1.579-.054c-.701 0-1.413.018-2.136.054-.723.031-1.265.059-1.627.081v-.71c.452 0 .769-.113.949-.339.181-.225.147-.496-.101-.812l-3.898-5.684c-.429-.609-.818-1.004-1.166-1.184-.352-.18-.856-.282-1.511-.305v-.676c.723-.09 1.31-.242 1.762-.454.452-.216.881-.539 1.288-.968l2.508-2.605c.723-.744 1.085-1.335 1.085-1.773 0-.442-.231-.76-.692-.954-.465-.19-1.071-.284-1.816-.284v-.677c.587.023 1.249.052 1.986.088.732.032 1.346.048 1.843.048.384 0 .757-.007 1.119-.02.361-.01.7-.025 1.017-.048.316-.023.587-.045.813-.068Zm6.468 17.662c-.926 0-1.728-.174-2.406-.521-.678-.352-1.191-.844-1.539-1.475-.352-.632-.528-1.365-.528-2.2 0-.992.232-1.804.698-2.436a5.15 5.15 0 0 1 1.776-1.522 13.919 13.919 0 0 1 2.291-.961c.8-.262 1.56-.51 2.283-.744.724-.24 1.318-.517 1.783-.833.461-.316.692-.733.692-1.252v-2.097c0-.948-.141-1.67-.421-2.166-.284-.496-.664-.83-1.139-1.001a4.772 4.772 0 0 0-1.592-.25 7.58 7.58 0 0 0-1.809.236c-.647.158-1.162.485-1.546.981.429.09.802.316 1.118.677.317.361.475.823.475 1.387 0 .564-.181 1.01-.542 1.34-.362.325-.825.487-1.39.487-.655 0-1.134-.207-1.437-.622a2.327 2.327 0 0 1-.461-1.408c0-.586.147-1.06.441-1.42.293-.362.666-.7 1.118-1.016.52-.36 1.193-.67 2.02-.927.823-.262 1.753-.392 2.792-.392.926 0 1.717.108 2.373.324.655.212 1.197.521 1.626.928.588.54.972 1.2 1.153 1.975.18.78.271 1.713.271 2.795v9.406c0 .564.086.97.257 1.218.168.248.432.372.794.372.248 0 .485-.056.711-.169a5.06 5.06 0 0 0 .814-.541l.372.575c-.474.361-.926.661-1.355.9-.43.235-1.006.352-1.729.352-.655 0-1.197-.113-1.627-.338a2.16 2.16 0 0 1-.962-.995c-.217-.442-.325-1.002-.325-1.678-.611 1.015-1.338 1.77-2.183 2.267-.85.496-1.805.744-2.867.744Zm1.22-1.353c.746 0 1.441-.215 2.088-.643.641-.429 1.222-1.072 1.742-1.929v-6.631c-.272.383-.667.703-1.187.96a27.57 27.57 0 0 1-1.694.779c-.61.261-1.19.566-1.742.913a4.443 4.443 0 0 0-1.376 1.374c-.361.564-.542 1.297-.542 2.2 0 .901.244 1.623.732 2.165.484.54 1.143.812 1.979.812Z"/>
</svg>
